<?xml version="1.0" encoding="UTF-8"?>
<svg id="Capa_1" data-name="Capa 1" xmlns="http://www.w3.org/2000/svg" viewBox="0 0 100 100">
  <defs>
    <style>
      .cls-1 {
        fill: #ee6e19;
      }

      .cls-1, .cls-2 {
        stroke-width: 0px;
      }

      .cls-2 {
        fill: #fff;
      }
    </style>
  </defs>
  <rect class="cls-1" x="-4.59" y="-4.59" width="109.17" height="109.17"/>
  <g>
    <path class="cls-2" d="M26.67,65.52h1.1c2.1,0,3.25-1.1,3.25-3.1v-17.62h-3.68v-6.35h3.68v-1.62c0-5.73,3.25-8.69,9.55-8.69h2.72v6.35h-2.05c-2.1,0-3.25,1.1-3.25,3.1v.86h5.3v6.35h-5.3v18.38c0,5.73-3.25,8.69-9.55,8.69h-1.77v-6.35Z"/>
    <path class="cls-2" d="M44.82,50.62c0-7.26,5.06-12.75,11.75-12.75,2.96,0,5.49,1.1,7.35,3.01v-2.44h6.97v15.66c0,1.24.72,1.96,1.96,1.96h.48v6.73h-1.96c-3.34,0-5.54-1.1-6.64-3.29-1.96,2.39-4.77,3.87-8.16,3.87-6.68,0-11.75-5.49-11.75-12.75ZM63.92,50.62c0-3.44-2.53-6.02-5.97-6.02s-5.92,2.58-5.92,6.02,2.53,6.02,5.92,6.02,5.97-2.58,5.97-6.02ZM59.53,28.9h8.74l-6.21,7.07h-7.31l4.77-7.07Z"/>
  </g>
</svg>