<?xml version="1.0" encoding="UTF-8"?>
<svg id="Capa_1" data-name="Capa 1" xmlns="http://www.w3.org/2000/svg" viewBox="0 0 192.13 143.62">
  <defs>
    <style>
      .cls-1 {
        fill: #fff;
        stroke-width: 0px;
      }
    </style>
  </defs>
  <path class="cls-1" d="M96.31,49.77c-.05.05-.03.13.08.24l-.08-.24c.08-.19.2-.33.35-.44.16-.11.34-.13.55-.08.1-.16.14-.33.12-.52-.03-.18.02-.37.16-.55.24.03.43-.1.57-.38.14-.28.35-.36.61-.26-.08-.18-.07-.34.04-.48.11-.13.14-.24.12-.32.32-.05.61-.24.87-.56.26-.32.53-.67.81-1.05.28-.38.56-.76.87-1.11.3-.36.66-.59,1.08-.7.05-.05.03-.11-.06-.18-.09-.06-.13-.14-.1-.22.32-.05.5-.13.53-.22.04-.09.16-.27.37-.54-.29-.18-.62-.35-.97-.49-.36-.14-.69-.3-.99-.47s-.57-.37-.79-.59c-.23-.22-.37-.52-.42-.89.13-.13.22-.28.28-.44.05-.16.1-.3.16-.44.05-.13.12-.23.21-.3.09-.07.26-.06.5.02.08-.08.11-.17.08-.28s.01-.21.12-.32c.42.05.78,0,1.07-.16.29-.16.65-.19,1.07-.08.03-.13.03-.26,0-.39.55.02,1.04-.2,1.46-.68.21.05.34.04.4-.04.05-.08.18-.07.4.04.03-.08.07-.15.14-.22s.1-.15.1-.26c.76-.19,1.55-.5,2.35-.94.8-.44,1.63-.89,2.47-1.34.84-.45,1.71-.85,2.61-1.2.9-.35,1.82-.52,2.77-.53.08.19.12.36.12.51,0,.16.04.33.12.51-.24.13-.4.29-.49.46-.09.17-.02.38.22.61-.05.16-.12.31-.21.46s-.19.3-.29.46c-.08-.18-.15-.19-.22-.02-.06.17-.15.21-.26.1-.15.85-.49,1.56-1.02,2.14-.52.58-.94,1.27-1.26,2.07-.08-.08-.18-.1-.32-.08-.08.19-.11.35-.1.5.01.14,0,.3-.06.46-.13.13-.24.21-.34.22-.09.01-.2.03-.34.06-.13.45-.28.85-.45,1.21-.17.36-.28.75-.33,1.17-.13.13-.26.13-.4,0,.11.47-.02.85-.37,1.13-.35.28-.76.22-1.21-.17.13-.4.14-.79.03-1.19-.11-.4-.14-.8-.09-1.23.13-.08.28-.04.44.12.21-1.16.66-2.25,1.37-3.25.71-1.01,1.43-2.09,2.16-3.26-.13-.13-.25-.2-.36-.2,0,.16-.08.33-.24.52-.16.19-.35.21-.59.08-.13.34-.33.56-.61.66-.28.09-.56.17-.85.22-.29.05-.55.12-.79.2-.24.08-.35.28-.35.6-.42,0-.77.09-1.05.26-.28.17-.6.29-.97.34-.21.21-.21.4,0,.55-.31.27-.62.46-.93.58-.3.12-.56.34-.77.66-.03.08.03.12.18.14.14.01.26-.05.33-.18.13.08.16.16.08.24-.08.08-.12.17-.12.28.48.53.98,1.07,1.49,1.64.52.57.96,1.08,1.33,1.56-.24.34-.43.63-.59.87-.16.24-.35.53-.59.87-.48-.26-.95-.55-1.43-.86-.48-.31-.93-.63-1.35-.94-.24.24-.52.5-.85.78s-.65.57-.97.86c-.32.29-.58.56-.81.82-.22.25-.33.48-.33.7-.34-.02-.59.12-.75.44s-.25.62-.27.91c-1.47.85-2.62,2.03-3.43,3.54-.37.37-.79.82-1.26,1.35s-.95,1.09-1.44,1.69c-.48.6-.92,1.2-1.32,1.81-.39.61-.69,1.15-.9,1.63-.81.93-1.57,1.94-2.28,3.02-.71,1.09-1.4,2.19-2.08,3.3-.68,1.11-1.35,2.21-2.02,3.28-.67,1.07-1.36,2.05-2.06,2.92-.16.48-.36.93-.63,1.35-.26.42-.54.84-.84,1.25-.3.41-.59.82-.87,1.23-.28.41-.49.85-.65,1.33-.26.32-.52.66-.77,1.01-.25.36-.51.63-.77.82-.26.19-.54.27-.83.24-.29-.02-.6-.25-.92-.67.21-.26.38-.54.51-.83.13-.29.26-.58.39-.87.13-.29.29-.56.47-.79.18-.24.42-.45.71-.64-.05-.32.08-.67.39-1.07.32-.4.59-.64.83-.72.08-.08.08-.16,0-.24-.08-.08-.11-.16-.08-.24.11-.16.2-.19.28-.08.08.11.16.12.24.04-.03-.13-.02-.3.02-.49.04-.2.16-.27.38-.22.08-.08.06-.11-.06-.1s-.18-.03-.18-.14c.08-.13.15-.17.22-.1.07.07.15.1.26.1.29-.56.57-1.16.86-1.83.29-.66.73-1.14,1.34-1.43.08-.29.21-.68.41-1.17s.5-.81.93-.97c0-.42.1-.73.31-.91.21-.19.39-.49.55-.91.05-.05.12-.04.2.04.08.08.13.08.16,0,0-.37.1-.73.29-1.09.2-.36.43-.72.71-1.07.27-.36.53-.72.77-1.09.24-.37.39-.75.47-1.15.21,0,.38-.09.51-.28.13-.19.25-.38.35-.6.11-.21.22-.4.35-.56.13-.16.32-.23.55-.2-.11-.53.05-1,.49-1.41.43-.41.77-.76,1-1.05.16-.42.4-.81.73-1.17.33-.36.69-.66,1.08-.9.29-.56.66-1.04,1.12-1.45.46-.41.81-.89,1.04-1.45Z"/>
  <path class="cls-1" d="M124.75,2.7c-.14-.02-.17.02-.07.12.09.1.12.06.07-.12.12-.05.28-.06.49,0,.21.05.34.13.4.25.27-.1.6-.16,1-.15.4,0,.78.03,1.15.09s.74.09,1.09.11c.36.02.66-.05.9-.19.6.09,1.27.19,2.01.3.74.11,1.5.2,2.29.28.78.08,1.57.13,2.36.16.79.03,1.54.04,2.27.04.18,0,.27.03.28.12,0,.09.06.16.16.21.11-.02.13-.05.07-.1-.07-.04-.04-.1.08-.15.23.14.46.17.69.08.23-.09.43,0,.61.28.16-.12.35-.17.56-.16.21.01.34.15.37.41.2-.12.41-.15.64-.1.23.05.34-.01.33-.2.37.16.73.23,1.08.19.35-.04.69-.07,1.02-.09l-.04.26c.18,0,.45-.07.81-.18.36-.11.65.03.88.43.49-.14.99-.21,1.49-.19.5.02,1,.06,1.5.11.5.06.99.1,1.5.14.5.04.97,0,1.42-.11.16.13.45.22.86.26.41.04.71.04.89,0,.05.15.11.27.17.35.31-.13.6-.2.89-.19.29,0,.58.04.88.1.3.06.59.11.87.16.28.04.55.03.82-.04,1.13.2,2.33.34,3.62.4s2.54.24,3.77.53c.77-.07,1.67-.04,2.72.08,1.05.12,1.97.29,2.77.52.09-.13.19-.19.3-.17s.21.04.31.07c.1.03.2.06.29.07.09.01.16-.03.21-.13.07.01.08.08.02.22-.06.14-.07.24-.05.32.18,0,.29-.08.33-.22s.1-.11.18.08c.2-.15.34-.25.42-.29.08-.04.28-.04.59,0l-.05.37c.12-.05.25-.07.39-.05.14.02.21-.06.2-.24.07,0,.09.14.05.39.45-.11,1-.15,1.64-.11s1.19.24,1.64.59c.23-.11.45-.15.64-.12.19.03.36.09.51.18.15.09.29.2.44.31.15.11.29.18.43.2.07.05.07.13.02.25-.05.12.01.16.2.11-.22.26-.51.41-.88.46-.37.05-.75.06-1.14.02-.39-.04-.78-.11-1.16-.22-.38-.11-.69-.2-.93-.27-.67.15-1.35.17-2.04.05s-1.33-.24-1.92-.37c-.16.12-.4.17-.72.14-.32-.03-.55-.18-.69-.45-.08.02-.16.04-.25.04-.09,0-.13.1-.12.28-.59-.16-1.22-.26-1.88-.3-.66-.04-1.32-.09-1.98-.13-.66-.04-1.3-.1-1.92-.18-.62-.07-1.19-.22-1.69-.44-.25-.04-.35.08-.32.33-.48-.21-.89-.33-1.25-.35-.36-.02-.78.01-1.26.08-.03-.08-.02-.14,0-.19.02-.05,0-.08-.07-.09-.42.15-.97.19-1.64.11-.67-.08-1.22-.26-1.65-.54-.5.18-1.12.27-1.88.26s-1.32-.14-1.67-.41c-.22.04-.51.07-.85.09-.35.02-.71.01-1.08-.02-.37-.04-.73-.09-1.06-.16-.33-.07-.61-.19-.84-.37-1.28.1-2.68.14-4.21.11s-2.92-.21-4.17-.54c-.14-.02-.23.09-.27.34-.49-.14-1-.24-1.56-.28-.55-.04-1.11-.08-1.66-.11-.55-.03-1.1-.06-1.63-.11s-1.06-.14-1.58-.29c-.27.14-.62.2-1.05.17-.43-.03-.88-.08-1.36-.15-.48-.07-.94-.13-1.38-.18-.45-.05-.8,0-1.08.14-.63-.16-1.24-.27-1.85-.33-.61-.05-1.19-.09-1.74-.12-.56-.03-1.09-.07-1.61-.13-.51-.06-1-.16-1.44-.29-.18.23-.47.31-.88.25-.41-.06-.74-.18-1-.36-.08.03-.11.08-.11.17,0,.09-.03.15-.11.17-.16-.17-.32-.24-.48-.21s-.31.11-.44.23c-1.81-.45-3.54-.49-5.18-.12-.69-.21-1.49-.34-2.41-.38-.91-.04-1.85-.06-2.81-.06-.96,0-1.91-.02-2.86-.07-.95-.05-1.79-.18-2.51-.4-.13.16-.28.25-.44.26-.16.01-.34,0-.53-.05-.19-.05-.37-.08-.53-.11s-.3.03-.43.15c-.84-.2-1.68-.33-2.51-.4-.84-.07-1.66-.12-2.47-.15-.81-.03-1.59-.08-2.36-.16s-1.51-.22-2.24-.44c0,.07,0,.13.02.19s.04.12.03.19c-.19.04-.39.02-.61-.06-.22-.09-.44-.16-.64-.23-.21-.07-.4-.09-.59-.06-.18.03-.31.16-.38.4-.29-.26-.61-.41-.96-.47-.35-.05-.72-.09-1.09-.11-.38-.02-.76-.05-1.15-.09-.39-.04-.75-.16-1.08-.35.08-.06.13-.15.15-.28.02-.12-.07-.16-.25-.12.01-.07.07-.17.18-.3.11-.13.07-.21-.1-.23.03-.18.1-.31.22-.4s.18-.26.18-.51c.29-.03.58-.05.85-.06.27-.01.54.09.79.31.6-.16,1.22-.2,1.85-.11s1.27.21,1.9.36c.63.15,1.23.25,1.82.3.59.05,1.12-.05,1.59-.31.47.25,1.03.42,1.68.52.65.1,1.33.15,2.03.16.7.01,1.38.02,2.05.03.67,0,1.25.01,1.76.02.51.18,1.12.31,1.81.38.69.07,1.3.03,1.83-.11.45.14.91.23,1.39.29.48.05.93.08,1.37.09.43,0,.84.03,1.24.05.39.02.74.09,1.05.21.11-.06.29-.11.51-.17.23-.06.36,0,.41.19.07.01.11-.02.12-.09,0-.07.02-.14.03-.21.24.11.48.17.73.19.25.02.5.03.75.03.25,0,.5.01.75.03.25.02.47.1.67.23.54-.21,1.07-.31,1.61-.3.54,0,1.09.05,1.66.14.56.08,1.14.15,1.73.2.59.05,1.18.01,1.78-.12.2.14.42.21.67.23.25.02.5.03.75.03.25,0,.49.01.73.03.23.02.45.09.64.23.08-.02.13-.14.16-.36.09.12.2.16.34.1.13-.05.29-.05.46.01l-.02.11ZM107.54,9.64l-.02.16c.07-.02.17-.06.29-.12.12-.06.23-.11.35-.17.12-.05.24-.07.36-.05.12.02.23.11.31.26.06-.14.18-.22.39-.24.2-.02.4-.02.59,0,.19.03.37.07.52.13.15.06.23.11.22.14.36.02.71-.03,1.05-.14.34-.11.67-.02.99.28.42-.19.77-.27,1.04-.25.27.02.55.11.85.26.11-.02.13-.05.07-.1-.07-.04-.04-.1.08-.15.13.09.28.13.44.12.16-.01.32-.02.47-.04.15-.01.27,0,.37.05.1.05.17.17.22.36.11.02.17-.03.21-.13.03-.1.09-.18.17-.25.23.14.44.2.62.17.18-.03.35.06.5.26.09-.1.17-.17.25-.21.08-.04.16.01.25.17.11.02.14-.07.09-.26.16.13.32.14.49.02.16-.12.29-.05.4.22.78-.17,1.61-.24,2.49-.2.88.04,1.78.11,2.7.21.92.1,1.83.18,2.73.24.89.06,1.76.03,2.61-.1.13.09.25.17.34.24.1.07.2.15.29.23.1-.17.19-.22.29-.15s.18.02.24-.15c.27.11.56.17.87.18.3,0,.62,0,.95,0,.33,0,.64.02.93.08.3.06.56.18.79.36.07.01.11-.02.12-.09.01-.07.02-.14.03-.21.26-.03.4.01.44.15.03.13.14.23.31.29.15-.01.17-.06.07-.12-.1-.07-.11-.13-.03-.19.12.13.27.19.43.2.16,0,.32,0,.47-.04s.29-.04.44-.02c.14.02.27.11.39.27.11-.02.19-.06.24-.13s.11-.13.19-.19c1.01.22,2,.3,2.97.25.96-.06,1.8.08,2.51.4.11-.02.18-.14.21-.35.29.22.61.32.96.28.35-.04.69-.07,1.02-.09.11.02.15.07.14.16-.01.09.01.14.09.15.15-.01.17-.06.07-.12s-.11-.13-.03-.19c.08.19.23.26.46.2.23-.06.41-.11.57-.16.07.01.09.07.06.17-.03.1-.02.18.05.22.85-.13,1.72-.15,2.61-.07.89.08,1.73.23,2.53.45,1.18.07,2.33.13,3.44.18,1.11.05,2.21.27,3.31.65.2-.15.54-.21,1-.18.46.03.73.2.79.5.31-.17.68-.24,1.09-.22.41.02.77-.01,1.07-.11-.09.13-.09.21,0,.24s.12.08.11.15c.2-.15.35-.27.43-.37.05.12.14.18.27.2.12.02.26.02.41,0s.27,0,.37.05c.1.05.14.15.12.29.2-.15.44-.21.7-.17.27.04.48.12.64.26.07,0,.12-.07.15-.25.15-.05.22-.02.2.08-.02.11.03.19.13.24.14-.2.37-.24.7-.14.33.1.56.09.68-.03.07.05.1.11.11.18,0,.07.04.15.1.23.28-.18.54-.26.8-.26.25,0,.51.03.77.09.26.06.52.11.76.17.24.05.5.03.77-.08.1.05.2.09.31.13.1.03.17.11.19.22.18.03.29-.02.34-.14.05-.12.16-.13.33-.03.09.09.27.16.54.21.26.06.55.08.86.07.31,0,.6-.05.88-.11s.52-.14.71-.22c.02.11.07.19.15.24.08.05.1.14.04.28.96-.11,1.88-.09,2.78.06.9.15,1.76.36,2.59.63.61.02,1.17,0,1.69-.08.52-.07,1.05.08,1.61.46.13.09.19.08.19-.03,0-.11.02-.19.07-.26l.2.08.22-.02c.05.12.06.21.01.27-.05.07-.02.16.07.28.12-.05.18-.11.19-.16s0-.15,0-.3c.39.02.79.1,1.18.23.4.13.75.11,1.07-.06.33.23.66.35,1,.36.34.01.58.19.71.54.44-.04.82-.13,1.15-.26.33-.13.73-.11,1.21.07.06.08.12.16.18.24.06.08.06.19,0,.33.17.1.24.07.23-.07-.01-.15.04-.17.17-.08-.02.11,0,.18.02.22.03.04.04.1.03.17-.38-.09-.58.04-.6.4-.27-.37-.46-.34-.55.08-.62-.2-1.11-.28-1.48-.25s-.82-.06-1.37-.28c-.38.12-.87.19-1.46.19s-1.13-.12-1.6-.37c-.43.23-.94.26-1.53.1-.59-.16-1-.33-1.22-.5-.12.09-.32.15-.6.18-.28.03-.55.03-.84-.02-.28-.04-.56-.1-.84-.18-.28-.08-.48-.18-.6-.31-.85.16-1.77.19-2.75.08-.98-.11-1.88-.26-2.72-.46-.16.08-.39.13-.7.14-.31,0-.63,0-.97-.04-.34-.03-.67-.08-.98-.14-.31-.06-.57-.15-.77-.25-.07-.01-.12.07-.15.25-.48-.18-.98-.28-1.5-.3-.52-.02-1.05-.05-1.59-.07-.54-.03-1.08-.06-1.63-.11-.55-.04-1.08-.19-1.58-.45-.07,0-.11.02-.12.09-.01.07-.02.14-.03.21-.31-.12-.62-.19-.94-.22-.32-.03-.65-.04-1-.04-.34,0-.68-.02-1.02-.07-.34-.05-.69-.16-1.06-.32-.98.04-1.93.01-2.86-.07-.93-.08-1.86-.18-2.8-.3-.94-.12-1.89-.23-2.85-.34-.96-.1-1.96-.16-3.01-.17.01-.07.04-.11.1-.12.06,0,.07-.05.05-.13-1.53.1-2.98.09-4.36-.02s-2.89-.31-4.54-.59c-.26.07-.62.11-1.07.11-.45,0-.93-.02-1.42-.07-.5-.05-.98-.12-1.43-.21-.46-.08-.83-.15-1.11-.19-1.05.03-2.11.03-3.17.02s-2.12-.15-3.16-.41c-.27.14-.59.21-.95.21-.36,0-.74-.03-1.12-.08-.39-.06-.77-.1-1.15-.12s-.7.02-.97.13c-.51-.18-1.02-.29-1.53-.31-.5-.02-.98-.03-1.43-.02-.45,0-.91,0-1.38-.01-.47-.01-.94-.09-1.43-.24-.07-.01-.08.02-.02.11.06.08.03.15-.08.2-1.37-.24-2.73-.38-4.08-.41-1.35-.04-2.66-.04-3.92-.01-1.27.03-2.52.03-3.76.01s-2.44-.15-3.6-.39c-.18.23-.45.31-.82.26s-.61.05-.73.33c-.3-.19-.73-.36-1.3-.52-.57-.16-1.03-.08-1.36.23-.52-.15-1.03-.22-1.54-.23-.51,0-1.05,0-1.63.03-.17-.1-.29-.2-.36-.32-.07-.12-.2-.17-.38-.16.09-.17.11-.25.04-.24-.07,0-.16-.03-.25-.12.15-.52.33-.96.55-1.33.22-.37.58-.55,1.08-.54.79.26,1.6.42,2.42.47.82.05,1.65.09,2.47.12.83.03,1.66.07,2.5.12.84.05,1.67.21,2.5.48.11-.02.14-.07.08-.15-.06-.08-.03-.15.08-.21.24.11.53.17.89.19.36.02.6-.05.74-.22.11.02.15.07.14.16s.05.12.2.11ZM107.54,9.64c.01-.07.03-.09.06-.07.03.02,0,.05-.06.07ZM111.82,2.31c.02.08.02.09,0,.05-.03-.04-.03-.06,0-.05ZM176.95,8.13c.17.06.23.04.17-.06-.06-.1-.12-.08-.17.06ZM192.13,17.3c0,.11,0,.25-.04.43-.25-.04-.4,0-.45.1-.2-.1-.27-.26-.2-.46.03,0,.04.06.03.17.22,0,.34-.13.38-.38.18,0,.27.04.28.15Z"/>
  <g>
    <path class="cls-1" d="M2,88.07v.1s.06-.03.06-.05c0-.03-.02-.04-.06-.04-.07-.12-.1-.23-.1-.31,0-.08.02-.16.07-.23.04-.07.09-.14.14-.22.05-.08.09-.17.12-.29.16-.05.27-.05.34,0,.07.04.13.1.19.17s.12.15.17.22.16.12.31.14c-.02.06-.05.12-.08.15-.03.04-.04.1-.03.18-.07.03-.09.04-.06.06.03.01.05,0,.06-.06.14.08.2.25.17.49-.03.24-.08.51-.15.8-.07.29-.12.58-.14.86-.03.28.04.5.21.66-.05.14-.1.31-.15.49s-.04.35.03.51c-.22.31-.39.71-.49,1.21-.1.5-.19,1.03-.27,1.58s-.16,1.1-.25,1.64c-.09.54-.22,1.01-.39,1.41.1.15.14.31.13.48s-.03.35-.06.52-.04.33-.04.47c0,.14.06.25.19.31-.03.37-.12.64-.28.83-.16.19-.34.3-.53.34-.2.04-.39,0-.57-.08-.18-.09-.32-.23-.43-.43s-.13-.43-.09-.7c.04-.27.2-.57.47-.89-.03-.86-.01-1.72.05-2.58.06-.86.15-1.71.26-2.57.11-.86.24-1.72.38-2.57.14-.86.27-1.71.38-2.55.13-.07.27-.08.44-.05ZM2.49,83.47c-.08-.06-.11-.14-.11-.25,0-.11-.02-.2-.08-.27-.28-.02-.5-.1-.64-.25-.14-.15-.24-.33-.3-.54.29-.02.51-.12.65-.31.15-.19.26-.44.33-.75.18,0,.34-.01.46-.06.12-.04.23-.1.32-.17.24.06.42.16.52.3.1.14.16.29.17.46.01.17,0,.35-.04.54-.04.19-.08.36-.12.53-.2.11-.4.21-.59.31-.2.09-.39.2-.57.33l-.02.15Z"/>
    <path class="cls-1" d="M14.43,89.03c.05.11.06.25.02.43.38.28.84.64,1.35,1.07.52.43.98.91,1.38,1.44.4.53.68,1.08.84,1.66.16.58.09,1.17-.21,1.75-.03.42-.17.82-.4,1.21-.23.39-.52.74-.87,1.05-.35.31-.73.56-1.14.75-.41.19-.82.31-1.23.34-.4.24-.81.42-1.24.55s-.86.26-1.29.37c-.43.12-.86.25-1.27.4-.41.15-.8.36-1.17.61-.17-.12-.32-.25-.46-.37-.13-.13-.3-.24-.49-.35-.23-1.66-.49-3.25-.78-4.78s-.63-3-1.05-4.41c.18-.36.31-.74.39-1.12.08-.38.21-.79.4-1.22.51-.32,1.06-.54,1.65-.65.59-.11,1.21-.13,1.85-.06.64.07,1.27.22,1.9.46.63.24,1.23.52,1.81.86ZM16.3,94.52c-.04-.66-.28-1.28-.73-1.85-.45-.58-1-1.08-1.65-1.52-.65-.44-1.35-.8-2.08-1.09-.74-.28-1.41-.47-2.02-.56-.13.09-.23.17-.32.24-.08.07-.17.14-.25.21s-.18.12-.3.18c-.12.05-.26.1-.43.15-.17.38-.24.66-.23.82.01.16.09.26.22.29s.3.04.51.01c.21-.03.43-.04.66-.05.23,0,.45.03.66.09.21.07.38.23.52.48-.24.47-.41.99-.5,1.55-.09.56-.12,1.13-.09,1.7.03.58.11,1.14.23,1.7.12.56.29,1.08.5,1.56.45-.15.99-.32,1.61-.53.62-.21,1.21-.47,1.76-.78.55-.31,1.02-.67,1.41-1.09.39-.41.57-.92.54-1.51ZM8.46,91.45c0-.07.03-.1.06-.09.03,0,.06.02.08.05.02.03.02.05,0,.06-.02.01-.07,0-.15-.02Z"/>
    <path class="cls-1" d="M21.83,99.18c.22.14.34.36.37.64.03.28.05.59.04.92-.34.19-.71.25-1.09.16s-.71-.28-.98-.56c.06-.33.04-.6-.05-.8-.09-.2-.22-.38-.39-.54,0-.08.03-.13.07-.16.04-.02.06-.07.07-.16,0-.08-.05-.13-.13-.14-.08,0-.11-.06-.08-.16.08-.9.1-1.7.07-2.42-.03-.72-.05-1.4-.05-2.06.1-.26.17-.56.2-.91.03-.35.06-.71.09-1.07.03-.37.07-.71.13-1.04.06-.33.16-.61.3-.83.15-.22.36-.38.63-.45.28-.08.65-.03,1.12.12,0,.76-.01,1.51-.06,2.25s-.1,1.49-.15,2.25c-.05.76-.09,1.55-.12,2.37-.03.82-.03,1.68.01,2.6Z"/>
    <path class="cls-1" d="M31.35,93.66c-.43-.17-.85-.38-1.25-.64-.4-.26-.79-.49-1.18-.68-.39-.2-.78-.34-1.18-.42-.4-.08-.82-.03-1.27.15.42.66.93,1.26,1.53,1.81.6.55,1.19.98,1.79,1.29.02.14-.02.2-.1.2-.08,0-.15.04-.19.12.04.09.12.15.25.18.13.03.26.05.4.05.13.32.32.61.57.89s.47.55.64.83c.18.28.28.59.32.92.03.33-.09.71-.38,1.15-.8.34-1.6.65-2.42.93-.81.28-1.6.59-2.37.93-.12-.13-.25-.21-.41-.23-.16-.02-.34-.01-.53.02-.2.04-.4.08-.62.13-.21.05-.43.07-.65.06-.13-.49-.12-.86.01-1.13.13-.27.34-.48.63-.63.29-.15.63-.25,1.05-.31.41-.06.83-.11,1.25-.16s.84-.12,1.24-.21c.4-.09.74-.25,1.01-.47-.17-.53-.43-.98-.78-1.37-.35-.39-.73-.74-1.16-1.06-.42-.32-.86-.64-1.3-.95-.44-.31-.83-.66-1.18-1.05-.35-.39-.62-.83-.82-1.33-.2-.5-.26-1.11-.19-1.82.3-.28.72-.48,1.26-.6.54-.12,1.11-.16,1.73-.12.62.04,1.22.15,1.82.34.6.18,1.12.43,1.56.73s.75.67.94,1.08.17.88-.04,1.39ZM26.51,91.81c.17-.01.28-.06.34-.13-.06-.07-.13-.1-.23-.09-.09.01-.13.09-.12.22Z"/>
    <path class="cls-1" d="M33.72,104.18c-.09-1.2-.13-2.46-.12-3.78,0-1.32.06-2.64.14-3.97.09-1.33.22-2.64.39-3.92.17-1.28.39-2.48.67-3.61.15-.17.34-.28.56-.35.22-.07.38-.22.47-.46.95.06,1.79.35,2.53.86.74.51,1.33,1.16,1.79,1.94.46.79.76,1.66.9,2.63.14.97.1,1.93-.14,2.89-.65.83-1.46,1.49-2.41,2-.95.51-1.91.89-2.89,1.16-.02.32-.02.67.02,1.07.04.4.06.8.08,1.21.02.41.01.79-.02,1.16-.03.37-.11.67-.24.9-.13.24-.33.39-.61.45-.28.07-.66,0-1.14-.19ZM39.28,95.28c.26-.35.35-.85.27-1.48-.08-.63-.29-1.25-.62-1.84-.33-.59-.75-1.08-1.27-1.46s-1.07-.5-1.66-.35c.09.05.1.12,0,.23-.09.11-.14.19-.15.26.21.21.4.43.56.66.16.23.32.47.45.72-.33.35-.57.76-.73,1.25-.16.48-.28.99-.37,1.5-.09.52-.16,1.04-.21,1.55-.06.51-.13.97-.23,1.36.35.13.75.15,1.19.08.44-.07.85-.22,1.24-.45.39-.23.72-.52,1-.87.28-.35.45-.73.52-1.15Z"/>
    <path class="cls-1" d="M44.49,94.1c.39-.17.88-.27,1.46-.29.58-.02,1.13.05,1.65.21.52.16.95.42,1.29.76.34.34.48.79.42,1.33.09-.07.16-.17.21-.3.05-.13.14-.2.28-.22.71.79,1.13,1.7,1.26,2.74.13,1.03-.03,2.1-.48,3.2-.25.15-.54.27-.86.35-.32.08-.65.14-.99.18-.34.04-.67.08-.98.11-.31.03-.58.06-.81.1-.97.1-1.8,0-2.5-.29-.69-.29-1.26-.71-1.69-1.24-.43-.53-.72-1.12-.88-1.78-.16-.66-.17-1.31-.03-1.96.14-.65.42-1.23.86-1.76.43-.53,1.03-.91,1.78-1.16ZM44,97.44c-.03.47.03.89.2,1.26.17.37.42.69.75.96s.73.48,1.17.63c.44.15.92.24,1.42.25.5.01,1.01-.06,1.51-.22.13-.1.22-.2.26-.29.04-.1.08-.19.11-.29.03-.1.05-.2.08-.31s.07-.23.13-.37c-.17-.14-.26-.31-.29-.53-.02-.21-.03-.42-.01-.63.02-.21.03-.41.04-.61,0-.2-.04-.37-.14-.5-.09.32-.3.47-.63.43-.15-.15-.32-.28-.52-.39-.2-.11-.3-.29-.3-.54-.29-.05-.59-.13-.89-.22-.3-.1-.59-.17-.88-.22-.29-.05-.56-.08-.81-.07-.25,0-.48.07-.68.19-.31.52-.49,1.01-.52,1.47ZM44.49,94.1c-.01-.05,0-.07.03-.06.03.01.02.03-.03.06Z"/>
    <path class="cls-1" d="M61.1,93.18c-.25.69-.44,1.44-.56,2.24-.12.8-.17,1.61-.15,2.44.03.83.13,1.64.31,2.43.18.79.45,1.52.8,2.19-.07.29-.13.57-.19.82-.06.25-.13.49-.22.7-.09.21-.23.4-.4.56-.17.16-.39.28-.67.36-.63-.36-1.19-.79-1.68-1.28-.49-.49-.93-1.01-1.32-1.56s-.74-1.11-1.05-1.69c-.32-.58-.61-1.13-.88-1.67-.29.86-.52,1.65-.69,2.38-.17.73-.28,1.56-.3,2.48-.13,0-.23.03-.29.08-.06.05-.1.11-.12.19-.02.07-.04.15-.04.25,0,.09-.03.19-.07.28-.13-.03-.24-.04-.32-.03s-.17.03-.25.06-.17.04-.26.06c-.09.01-.21,0-.36-.06-.06-.73-.07-1.51,0-2.34.06-.83.16-1.66.3-2.48.14-.82.31-1.62.52-2.39s.42-1.47.65-2.1c.78.21,1.39.57,1.82,1.07.43.5.81,1.04,1.12,1.64.31.59.62,1.2.92,1.81.3.62.71,1.16,1.22,1.62.11-.46.17-.97.2-1.55.03-.58.05-1.17.08-1.77.02-.6.06-1.19.1-1.76.04-.57.13-1.09.25-1.54.05-.11.13-.17.25-.17.12,0,.19-.07.23-.2-.07-.11-.08-.26-.04-.45.05-.19.13-.35.24-.49.11-.14.24-.23.39-.28.15-.05.31,0,.47.16Z"/>
    <path class="cls-1" d="M65.04,101.77v-.1s-.06.03-.06.05c0,.03.02.04.06.04.02.36.08.68.17.98.09.3.17.58.24.86.07.28.1.55.1.81s-.06.54-.18.85c-.24.05-.49.1-.75.12s-.51-.02-.76-.13c-.31-.49-.5-1.11-.58-1.87-.08-.76-.1-1.55-.06-2.38.03-.83.1-1.65.19-2.48.09-.83.15-1.56.18-2.2.2-.16.46-.27.77-.35.31-.07.65-.02,1.01.16,0,.42,0,.87,0,1.35s0,.97-.03,1.47c-.02.5-.05.99-.09,1.47-.04.48-.11.93-.21,1.33ZM65.01,105.57c0-.07.03-.1.06-.09s.06.02.08.05c.02.03.02.05,0,.06-.02.02-.07,0-.15-.02Z"/>
    <path class="cls-1" d="M67.59,100.12h.07s0-.06-.03-.06c-.03,0-.04.02-.04.06-.52-.43-.82-.85-.92-1.25-.09-.4-.06-.78.11-1.15.17-.37.44-.71.82-1.03.38-.32.78-.63,1.22-.91.44-.28.87-.54,1.29-.78.42-.23.77-.44,1.05-.63.5.01,1.03-.03,1.58-.13.55-.1,1.1-.17,1.66-.2.56-.03,1.11,0,1.66.09.55.09,1.07.33,1.56.71.16.66.16,1.25.02,1.78-.14.53-.38,1.01-.72,1.45s-.75.84-1.24,1.2c-.49.36-1,.69-1.53,1-.53.3-1.07.59-1.6.85-.54.26-1.02.53-1.46.79.16.36.41.65.75.9.34.24.72.46,1.15.66.43.19.88.38,1.36.56.47.17.93.37,1.38.58.44.21.84.47,1.19.76.35.29.62.65.8,1.08-.21.53-.57.95-1.06,1.27-.49.32-1.05.56-1.67.71-.62.16-1.27.25-1.94.28-.67.03-1.28.02-1.85-.01-.14.07-.18.17-.12.3.06.13.07.26.04.37-.74-.16-1.36-.38-1.88-.67-.52-.29-.91-.73-1.17-1.32.05-.11.14-.16.27-.14-.19-.51-.28-1.11-.26-1.81.02-.69.07-1.41.16-2.16.09-.75.18-1.49.26-2.24.08-.75.1-1.43.06-2.06-.12.1-.2.22-.25.35-.05.13-.1.25-.15.37s-.12.23-.2.33-.22.16-.39.19v-.1ZM72.93,95.78c-.21.16-.45.3-.75.43s-.6.25-.92.39c-.32.14-.64.28-.95.43-.31.15-.58.32-.81.53.3.12.5.29.58.5.08.21.12.45.12.71,0,.26-.03.53-.06.8-.03.27-.02.54.03.8,2.34-.71,4.26-1.91,5.78-3.6-.07-.21-.12-.36-.12-.44,0-.08,0-.2.04-.35-.31-.09-.59-.13-.84-.14-.25,0-.49,0-.72,0s-.46.02-.68.03-.46-.01-.71-.07ZM69.86,106.49c.79.1,1.61.16,2.45.18.84.03,1.78.04,2.84.03-.17-.36-.44-.67-.81-.93-.36-.26-.76-.48-1.2-.66-.44-.18-.89-.31-1.36-.39-.47-.08-.89-.11-1.26-.09-.01-.15-.11-.29-.28-.42-.17-.13-.32-.16-.44-.09-.05.4-.05.78-.01,1.16.04.37.06.78.08,1.22Z"/>
    <path class="cls-1" d="M80.94,95.78c.19-.03.39.05.6.22.21.18.38.34.5.49-.19.15-.32.41-.41.79-.09.38-.11.72-.06,1.01-.08.08-.17.11-.29.09-.12-.01-.19.02-.24.1,0,.1.06.15.18.16.12,0,.15.08.1.23-.16.33-.29.73-.41,1.2-.12.46-.21.95-.27,1.47s-.09,1.03-.1,1.54.02,1,.09,1.46c-.07.02-.11.07-.13.13-.02.07-.09.06-.21,0,.03.27.18.46.44.56,0,.08,0,.15-.04.18s-.06.09-.08.15c.31.22.64.44.99.65.35.21.73.4,1.13.57.4.17.82.29,1.25.37.44.08.88.1,1.34.07.03.04.04.09.05.14,0,.06,0,.11,0,.16,0,.05.01.09.04.13.02.04.08.04.19.02-.11.24-.27.42-.48.55-.21.12-.44.22-.69.28-.25.06-.51.11-.79.14-.27.03-.54.08-.8.13-1.11,0-2-.24-2.67-.72-.67-.48-1.15-1.09-1.44-1.85-.29-.76-.4-1.61-.34-2.56.06-.95.25-1.91.59-2.88,0-.05-.04-.08-.08-.08-.04,0-.06-.04-.05-.11.14-.32.26-.65.35-1,.09-.35.18-.71.26-1.09.08-.38.16-.76.25-1.14.09-.38.2-.78.33-1.18.07-.02.17-.04.28-.05.12,0,.23-.03.33-.06.11-.03.19-.06.25-.1s.08-.09.04-.18Z"/>
    <path class="cls-1" d="M92.44,100.63v-.08s-.06,0-.06.03c0,.03.03.04.06.04.06.06.08.1.06.12-.02.02-.05.04-.1.06-.04.02-.08.04-.09.06-.02.02,0,.06.09.1-.09.06-.18.11-.27.17-.09.06-.2.08-.34.08,0,.08,0,.13.06.15.05.01.11.03.17.05.07.02.11.04.14.08.03.04.02.1-.02.2-.29-.12-.58-.27-.86-.46-.29-.19-.51-.44-.68-.76-.1-.01-.18,0-.25.02-.07.03-.13.06-.19.09s-.11.05-.17.05c-.06,0-.13-.03-.23-.09-.09.17-.22.31-.39.42-.17.1-.34.21-.52.33-.17.11-.31.24-.41.39-.1.15-.13.36-.08.63-.27.02-.45.11-.54.29-.03.06-.03.12-.02.16,0,.04.02.08.04.12.01.04.02.08.02.13s0,.11-.03.17c.57,0,1.11,0,1.6,0,.5,0,.99,0,1.49,0,.49,0,1.01.04,1.56.09.55.05,1.16.12,1.84.2.05.14.06.23.02.28-.04.05-.04.16-.01.33-.49.04-.99.07-1.49.1-.5.02-.98.07-1.44.14-.46.07-.9.18-1.31.34-.41.16-.77.4-1.08.71-.3-.12-.58-.11-.84.04-.25.15-.47.3-.66.46-.03.08-.03.14,0,.19.03.05.06.09.08.14.03.05.04.08.04.12s-.04.08-.12.14c.44.39.96.67,1.57.85.61.17,1.24.29,1.9.34.66.05,1.3.08,1.94.07.64,0,1.21,0,1.71.03.08,0,.14.01.17.06.03.05.05.09.06.15s.03.1.04.16c.02.05.05.09.1.11-.1.26-.25.41-.45.46-.2.05-.41.08-.64.07-.23,0-.45,0-.67.03-.22.02-.4.14-.54.34-.1,0-.14-.04-.12-.13s-.01-.14-.09-.15c-.07,0-.1.02-.11.05,0,.02,0,.05.01.09.01.04.02.07.02.1,0,.04-.02.06-.07.07-.97.1-1.89.08-2.77-.07-.88-.15-1.67-.42-2.37-.82-.7-.4-1.28-.91-1.75-1.55-.47-.64-.77-1.41-.89-2.31.27-.45.54-.95.8-1.48.26-.53.53-1.05.81-1.56s.59-1,.92-1.46c.33-.46.71-.85,1.12-1.17.42-.32.89-.54,1.42-.67.53-.13,1.13-.13,1.8,0,.03.16.12.34.26.56s.28.45.42.68c.14.23.25.47.33.7.08.23.08.44.01.63ZM92.26,101.47s0-.04.01,0,.02.04-.01,0Z"/>
    <path class="cls-1" d="M106.67,113.02c-.3.1-.58.27-.83.5s-.47.4-.65.5c-.39-.25-.7-.59-.92-1.03s-.41-.92-.55-1.45c-.15-.53-.28-1.08-.39-1.65-.12-.57-.25-1.09-.41-1.56.05-1.29.18-2.48.38-3.59.19-1.11.52-2.07.98-2.88.46-.81,1.08-1.43,1.86-1.85.78-.43,1.79-.59,3.02-.49.41.18.79.39,1.12.62.33.22.67.45,1.01.68.45.71.68,1.32.68,1.83,0,.51-.13.95-.41,1.32-.28.37-.68.68-1.18.93-.51.25-1.06.46-1.67.64-.6.18-1.2.34-1.81.47-.61.14-1.15.28-1.64.42-.07.58-.07,1.15,0,1.7.07.55.18,1.1.33,1.65.15.55.33,1.09.52,1.62.19.54.39,1.08.57,1.62ZM105.46,104.74c.92-.11,1.73-.23,2.44-.37s1.41-.42,2.12-.84c.04-.36,0-.68-.15-.94-.15-.26-.34-.48-.59-.66-.25-.18-.54-.33-.87-.43-.33-.11-.66-.18-.99-.22-.65.27-1.15.72-1.47,1.33-.33.62-.49,1.33-.49,2.13Z"/>
    <path class="cls-1" d="M123.08,105.7c.25.2.57.3.97.29-.02.2-.1.33-.24.39-.13.06-.28.1-.43.14-.16.03-.3.08-.43.15-.13.07-.21.21-.21.43-.18-.07-.33-.08-.45-.02-.12.06-.25.13-.37.22s-.25.17-.39.24c-.14.08-.32.08-.53.02-.02.3,0,.64.09,1.03.08.39.16.77.25,1.15.09.38.16.75.21,1.1s.04.63-.04.84c.24.37.22.77-.05,1.2-.22.02-.39.03-.51.03-.12,0-.31-.06-.59-.16,0-.24-.06-.44-.15-.6-.1-.16-.14-.38-.12-.64-.08-.06-.16-.07-.25-.04s-.19,0-.32-.1c.03-.06.05-.16.08-.28.03-.12.04-.24.03-.36,0-.12-.04-.22-.09-.31-.05-.09-.13-.14-.24-.16,0-.34-.02-.72-.04-1.14-.02-.42-.1-.82-.26-1.19-.44-.02-.84.06-1.21.24-.37.18-.75.35-1.12.51-.37.16-.75.24-1.14.26s-.8-.15-1.25-.5c-.31.23-.59.5-.83.82-.24.32-.42.65-.53,1.02s-.15.73-.11,1.11c.04.37.17.74.4,1.08-.09.34-.24.56-.45.65-.2.09-.43.12-.67.09s-.48-.09-.71-.17c-.23-.09-.41-.15-.52-.18-.19-.38-.25-.78-.17-1.21.08-.43.22-.85.42-1.27.2-.42.44-.81.72-1.17.28-.36.53-.65.76-.88.3-.5.59-1.04.88-1.61.29-.57.58-1.14.89-1.72.31-.58.63-1.14.97-1.68.34-.55.71-1.04,1.1-1.48.06-.08.18-.17.35-.29.17-.11.3-.18.39-.2.57-.13,1.01-.06,1.33.23.32.28.58.66.78,1.14.2.48.38.98.55,1.51.16.53.36.98.6,1.35.24.37.57.59.98.67.41.08.96-.1,1.65-.55ZM116.92,104.19c-.14.3-.29.57-.46.81s-.35.48-.53.72c-.18.24-.36.48-.53.72s-.33.51-.46.81c.6-.14,1.2-.3,1.77-.48.57-.17,1.18-.32,1.82-.45-.11-.21-.19-.46-.24-.73-.05-.27-.12-.53-.21-.76-.09-.23-.22-.41-.4-.55-.18-.14-.43-.17-.76-.09Z"/>
    <path class="cls-1" d="M130.69,101.34c.05,0,.07.02.07.08.29-.02.62.04.99.17.37.13.7.29.97.5.16.37.21.74.17,1.09-.04.36-.13.71-.28,1.05-.14.34-.31.68-.49,1-.18.32-.33.64-.43.97-.19.21-.44.47-.74.78-.3.31-.6.64-.9,1s-.58.74-.84,1.14c-.26.41-.44.8-.54,1.2-.1.39-.09.77.03,1.14.11.37.38.7.8,1,.19.12.38.22.57.3.19.07.39.14.6.21.21.07.41.15.6.24.19.09.38.21.56.37.21-.04.43-.07.68-.08.24-.01.49,0,.73.03.24.03.47.08.69.15.22.07.4.17.55.31-.3.55-.7.88-1.2.97s-1.04.09-1.61-.02c-.57-.11-1.16-.28-1.77-.49-.6-.22-1.16-.36-1.67-.44-.39-.23-.72-.46-1-.68-.27-.22-.53-.52-.77-.9-.08,0-.12.08-.12.23,0,.14,0,.26-.03.34-.21.06-.37.13-.49.21-.12.08-.17.21-.16.4-.27-.12-.51-.14-.71-.07-.2.07-.43.18-.68.33-.15-.52-.26-1.09-.32-1.71-.06-.62-.09-1.25-.11-1.9-.01-.65-.02-1.3-.03-1.96,0-.66-.03-1.27-.08-1.85.02-.32.04-.64.05-.96.01-.33.08-.61.19-.86.11-.25.3-.42.55-.52.26-.1.64-.09,1.17.04.02.12.05.23.08.34.04.11.09.2.17.3,1.2-1.68,2.78-2.82,4.75-3.4ZM127.16,105.9c.07.24.08.51.01.81-.06.29-.14.59-.22.89-.09.3-.16.58-.2.84-.05.26-.02.48.1.64.36-.38.75-.76,1.15-1.14.4-.39.78-.8,1.13-1.22.35-.43.67-.89.95-1.38.28-.5.5-1.04.65-1.62-.51-.05-.93.01-1.23.18-.31.17-.58.37-.82.61s-.47.49-.68.76-.5.48-.83.64ZM126.82,109.33c0,.08.02.12.04.09.02-.02.03-.05.04-.1,0-.04,0-.07-.01-.09-.01-.02-.04.01-.06.09ZM129.24,112.42s.03.04.01,0c-.02-.04-.03-.04-.01,0Z"/>
    <path class="cls-1" d="M139.15,108.62c.82.03,1.62.1,2.42.21.79.11,1.72.25,2.77.43l-.04.32c-.24.29-.53.47-.87.54-.34.07-.7.1-1.07.11-.37,0-.75.02-1.13.05-.38.03-.73.14-1.04.34-.07.18-.09.33-.04.45s.09.23.15.32c.06.09.1.18.12.25.02.08-.02.16-.13.25.14.24.29.52.46.85.17.33.28.66.32.98.04.33,0,.61-.16.86-.15.25-.46.41-.94.49.02-.15,0-.27-.07-.36-.06-.09-.15-.17-.25-.24-.1-.07-.21-.14-.31-.2-.11-.06-.19-.14-.25-.23-.02-.14,0-.24.04-.32.04-.08.08-.17.11-.26-.25-.13-.45-.3-.59-.51-.14-.21-.26-.44-.35-.7-.1-.26-.19-.51-.27-.78-.09-.26-.19-.5-.32-.72-.78.02-1.5.12-2.16.28-.67.16-1.3.35-1.92.56.03.27.03.55-.02.83-.05.28-.15.54-.3.77-.15.23-.34.44-.59.61-.25.17-.55.27-.9.29-.21-.5-.26-1-.17-1.52s.28-1.03.55-1.54c.27-.51.6-1.02.99-1.52.39-.5.77-.99,1.14-1.47.37-.48.7-.95.98-1.39.28-.44.46-.87.52-1.28.32-.28.61-.35.86-.21.25.14.49.36.71.67.22.3.44.63.66.98.22.35.46.58.73.69-.04.15-.04.27,0,.36.03.1.07.19.12.27.05.08.1.16.15.24.05.08.08.17.1.28ZM135.73,108.96c.22,0,.4,0,.56-.06.16-.05.26-.16.32-.34-.07,0-.11,0-.12-.03-.01-.03-.03-.06-.04-.09l-.04-.11s-.04-.06-.09-.06c-.13.08-.22.17-.27.24-.05.08-.16.22-.32.44Z"/>
    <path class="cls-1" d="M35.13,120.39c.18,0,.38,0,.58,0,.2,0,.39,0,.56.06s.31.14.41.28c.1.14.14.35.12.63-.19.03-.35.08-.49.17-.14.08-.3.13-.48.14-.08,0-.14-.04-.18-.08-.04-.05-.07-.1-.09-.15-.03-.05-.06-.11-.09-.16-.04-.05-.1-.09-.18-.1-1.54.05-3.02.11-4.47.17-1.45.07-2.87.28-4.27.62-.07.03-.22.09-.44.2-.22.11-.48.22-.76.35-.28.12-.58.24-.87.35-.3.11-.57.17-.83.19s-.45-.03-.6-.14-.2-.31-.17-.61c.02-.13.11-.32.29-.56.18-.24.35-.42.52-.53.62-.41,1.42-.75,2.41-1.03.98-.27,2.02-.46,3.12-.56s2.18-.11,3.24-.03c1.06.08,1.99.27,2.78.57,0,.08,0,.13-.04.15-.04.01-.06.04-.06.09ZM30.08,132.65c-.36.09-.7.13-1,.13-.3,0-.61-.1-.92-.29-.27-.66-.44-1.41-.49-2.26-.06-.85-.06-1.72-.01-2.6.05-.88.11-1.72.19-2.52s.11-1.49.1-2.04c.02-.06.06-.11.12-.15s.11-.07.15-.11c.05-.04.09-.09.12-.15.03-.06.04-.16.02-.3.11-.09.24-.16.39-.22.15-.06.3-.09.45-.11.15-.01.3,0,.43.05.14.05.25.15.33.29-.12.86-.2,1.74-.23,2.63-.03.89-.04,1.78-.01,2.67.03.89.07,1.75.14,2.59.07.84.14,1.63.21,2.38Z"/>
    <path class="cls-1" d="M40.05,120.52c.05,0,.07.02.06.08.29-.02.62.04.99.17s.69.29.97.5c.16.37.21.74.17,1.09-.04.36-.14.71-.28,1.05-.14.34-.31.68-.49,1-.18.32-.33.64-.43.97-.19.21-.44.47-.74.78s-.6.64-.9,1c-.3.36-.59.74-.84,1.14-.26.41-.44.8-.54,1.19-.1.39-.09.77.03,1.14.12.37.38.7.8,1,.19.12.38.22.57.29.19.07.39.15.6.21.21.07.41.15.6.24.19.09.38.21.56.37.21-.04.43-.07.68-.08.25-.01.49,0,.73.03.24.03.47.08.69.15.22.07.4.17.55.31-.3.55-.7.88-1.2.97-.5.1-1.04.09-1.61-.02-.57-.11-1.16-.28-1.77-.49-.6-.22-1.16-.36-1.67-.44-.39-.23-.73-.46-1-.68-.28-.22-.53-.52-.77-.9-.09,0-.12.08-.12.22,0,.14,0,.26-.03.34-.21.06-.37.13-.49.2-.12.08-.17.21-.16.4-.27-.12-.51-.14-.71-.07-.2.07-.43.18-.68.33-.16-.52-.26-1.09-.32-1.71-.06-.62-.09-1.25-.11-1.9-.01-.65-.02-1.3-.03-1.96,0-.66-.03-1.27-.08-1.85.02-.32.04-.64.06-.96.01-.33.08-.61.19-.86.12-.25.3-.42.56-.52.26-.1.64-.09,1.17.04.02.12.05.23.08.34.04.11.09.21.17.3,1.2-1.68,2.78-2.82,4.75-3.4ZM36.52,125.07c.07.24.08.51.01.81-.06.3-.13.59-.22.89-.09.3-.16.58-.2.84-.05.26-.02.48.1.64.36-.38.75-.76,1.15-1.15.4-.39.78-.79,1.13-1.22.35-.43.67-.89.95-1.38.28-.49.5-1.04.65-1.62-.52-.05-.93.01-1.23.18-.31.16-.58.37-.82.61s-.47.49-.68.76c-.22.27-.5.48-.83.64ZM36.18,128.51c0,.08.02.12.04.09.02-.02.03-.05.04-.1,0-.04,0-.07-.01-.09s-.03.01-.06.09ZM38.6,131.6s.03.04.01,0c-.02-.04-.03-.04-.01,0Z"/>
    <path class="cls-1" d="M48.51,127.79c.82.03,1.63.1,2.42.21s1.72.25,2.77.43l-.04.32c-.24.29-.53.47-.87.54-.35.07-.7.1-1.07.11-.37,0-.75.02-1.13.05-.38.03-.73.14-1.04.34-.07.18-.09.33-.04.45.04.12.09.23.15.32.06.09.1.18.12.25.02.08-.02.16-.13.25.14.24.29.52.46.85.17.33.28.66.32.98s0,.61-.16.86c-.15.25-.46.41-.94.49.02-.15,0-.27-.07-.36-.06-.09-.15-.17-.25-.24s-.21-.14-.31-.2c-.11-.06-.19-.14-.25-.23-.02-.14,0-.24.04-.32.04-.08.08-.17.11-.26-.25-.13-.45-.3-.59-.51-.14-.21-.26-.44-.36-.7s-.18-.51-.27-.78c-.09-.26-.19-.5-.32-.72-.77.02-1.5.12-2.16.28-.67.16-1.31.35-1.92.56.03.27.03.55-.03.83-.05.28-.15.54-.29.77-.15.23-.34.44-.59.61-.25.17-.55.27-.91.29-.21-.5-.26-1-.17-1.52.1-.52.28-1.03.55-1.54s.6-1.02.99-1.52c.39-.5.77-.99,1.14-1.47.37-.48.69-.95.98-1.39.28-.44.45-.87.52-1.28.32-.28.61-.35.86-.21.25.14.49.36.71.67.22.3.44.63.66.97.22.35.46.58.73.69-.04.15-.04.27,0,.36.03.1.07.18.12.27.05.08.1.16.15.24.05.08.08.17.1.28ZM45.09,128.13c.22.01.4,0,.56-.06.16-.05.26-.16.32-.34-.07,0-.11,0-.12-.03-.01-.03-.03-.06-.04-.09-.01-.04-.03-.07-.04-.1-.01-.04-.04-.06-.09-.06-.13.08-.22.17-.27.24-.05.08-.16.22-.32.44Z"/>
    <path class="cls-1" d="M57.53,123c-.12.17-.1.3.08.4.17.1.38.16.61.19-.03.13-.03.24,0,.33.03.09.07.16.11.23.04.06.09.13.15.2.06.07.1.14.12.23.02.36-.03.66-.17.9-.14.24-.29.46-.47.65-.17.19-.34.38-.49.57-.15.19-.22.42-.22.69,0,.33.12.58.39.73.27.15.57.29.92.4.35.12.68.27.99.45.31.18.52.47.62.87.39.1.69.26.9.49.21.23.34.5.4.83.06.33.06.69,0,1.08-.07.4-.16.79-.3,1.2-.48.6-1.15,1.09-2.02,1.48-.87.39-1.79.66-2.75.8s-1.89.15-2.78.01-1.6-.42-2.11-.85c.04-.21.12-.38.24-.51.12-.13.25-.23.41-.3.16-.07.33-.13.5-.17.17-.04.35-.09.52-.15-.22-.67-.42-1.42-.59-2.28-.17-.85-.28-1.71-.32-2.57-.04-.86.01-1.69.15-2.5.14-.81.41-1.49.81-2.07.4-.57.94-.99,1.64-1.25.7-.26,1.58-.28,2.67-.07ZM54.38,126.5c-.26-.05-.41.05-.44.3.16.09.29.19.4.31.11.12.25.22.43.29-.08.06-.11.14-.09.25.01.11.08.17.22.19.04-.36.17-.66.37-.87.2-.22.42-.42.64-.61.22-.19.43-.39.6-.59.18-.2.27-.48.28-.83-.28-.03-.58-.03-.88,0-.31.04-.59.13-.84.26s-.44.31-.58.52c-.13.21-.17.47-.11.78ZM55.13,130.92c-.14.07-.22.17-.23.3,0,.13,0,.29.05.46.04.17.09.34.16.51.07.17.12.31.13.43-.08.09-.17.16-.28.21-.11.05-.2.1-.3.17-.09.06-.17.15-.23.26-.06.11-.09.26-.08.44.46.11.95.17,1.49.18s1.05-.02,1.54-.12c.49-.09.95-.24,1.37-.45.42-.21.75-.48.99-.82-.02-.41-.13-.75-.33-1.02-.2-.28-.46-.51-.77-.71-.31-.2-.66-.38-1.04-.53-.38-.16-.75-.33-1.11-.53-.35-.19-.68-.41-.98-.66-.3-.25-.52-.56-.65-.95-.09.17-.15.39-.18.65s-.04.52-.02.78c.02.26.07.52.14.77s.18.46.31.63ZM54.81,127.98s.03.04,0,.01c-.03-.03-.03-.03,0-.01Z"/>
    <path class="cls-1" d="M73.99,129.94c.24.2.57.3.97.29-.02.2-.1.33-.24.39-.13.06-.28.1-.43.14-.16.03-.3.08-.43.15-.13.07-.21.21-.22.43-.18-.07-.33-.08-.45-.02-.13.06-.25.13-.37.22-.12.09-.25.17-.39.24-.14.08-.32.08-.53.02-.02.3,0,.64.09,1.03.08.39.16.77.25,1.15s.16.75.21,1.1c.05.35.04.63-.04.84.24.37.23.77-.04,1.2-.22.02-.39.03-.51.03-.12,0-.31-.06-.58-.16,0-.24-.06-.43-.15-.6-.1-.16-.14-.38-.12-.65-.08-.06-.16-.07-.25-.04-.09.03-.19,0-.32-.1.02-.06.05-.16.08-.28.03-.12.04-.24.03-.36s-.04-.22-.09-.31c-.05-.09-.13-.14-.25-.16,0-.34-.02-.72-.04-1.14-.02-.42-.1-.82-.26-1.19-.43-.02-.84.06-1.21.24-.37.18-.75.35-1.12.51-.37.16-.75.24-1.14.26-.39.02-.8-.15-1.25-.5-.31.23-.59.5-.83.82-.24.31-.42.65-.53,1.02-.11.36-.15.73-.11,1.11.04.38.17.74.4,1.08-.09.34-.24.56-.45.65-.2.09-.43.12-.67.09-.24-.03-.48-.09-.71-.17-.23-.09-.41-.15-.52-.18-.19-.38-.25-.78-.17-1.21.08-.43.22-.85.42-1.27.2-.42.44-.81.72-1.17.28-.36.53-.65.76-.88.3-.5.59-1.04.88-1.61.29-.57.58-1.14.89-1.72.3-.58.63-1.14.97-1.68.34-.55.71-1.04,1.1-1.48.06-.08.18-.17.35-.29.17-.11.3-.18.39-.2.57-.13,1.01-.06,1.33.23s.58.66.78,1.14c.2.48.38.98.54,1.51.16.53.36.98.6,1.35.24.37.57.59.98.67.41.08.96-.1,1.65-.55ZM67.82,128.44c-.14.3-.29.57-.46.81s-.35.48-.53.72c-.18.24-.36.48-.53.72-.17.24-.33.51-.46.81.61-.14,1.2-.3,1.77-.48.57-.17,1.18-.32,1.82-.45-.11-.21-.19-.46-.24-.73-.05-.27-.12-.53-.21-.76-.09-.23-.22-.41-.4-.55-.18-.14-.43-.17-.76-.09Z"/>
    <path class="cls-1" d="M72.8,130.61s-.02-.07-.01-.1-.01-.05-.04-.06c-.04-.22-.09-.43-.14-.62-.05-.19-.1-.39-.14-.6,1.28-.47,2.61-.87,3.99-1.2,1.38-.34,2.77-.57,4.18-.7,1.41-.13,2.81-.15,4.2-.06,1.39.09,2.73.34,4.03.73.06.16.06.3,0,.42-.06.12-.12.26-.18.42-.56.07-1.13.1-1.7.09-.57,0-1.13,0-1.68.02-.55.02-1.08.06-1.6.12s-1,.2-1.45.42c.08.68.19,1.35.33,2.02s.25,1.33.35,2c.09.67.14,1.34.13,2.03,0,.69-.11,1.4-.3,2.13-.13.12-.25.24-.36.36-.11.12-.21.26-.31.42-.31.3-.75.45-1.33.44-.58,0-1.18-.1-1.79-.29-.62-.19-1.2-.46-1.75-.79-.56-.34-.97-.7-1.24-1.08-.27-.39-.35-.76-.23-1.14.12-.37.55-.7,1.29-.98.01.42.16.76.42,1.02.26.26.59.47.98.64.39.17.83.29,1.31.39.48.09.96.17,1.42.25.17-.58.24-1.19.21-1.83-.03-.63-.11-1.27-.22-1.9-.12-.64-.25-1.26-.41-1.88-.16-.62-.28-1.21-.36-1.77-1.25.05-2.38.18-3.39.39-1.01.21-2.03.55-3.06,1.01-.19-.06-.38-.11-.56-.16-.18-.05-.37-.1-.58-.16ZM72.74,130.45s-.02.07-.06.06c-.03-.01-.01-.03.06-.06ZM72.8,130.61s-.03.07-.06.06-.01-.03.06-.06ZM86.13,127.49s.03.04.01.01-.03-.03-.01-.01Z"/>
    <path class="cls-1" d="M91.79,133.07c.82.03,1.63.1,2.42.21s1.72.25,2.77.43l-.04.32c-.24.29-.53.47-.87.54-.35.07-.7.1-1.07.11-.37,0-.75.02-1.13.05-.38.03-.73.14-1.04.34-.07.18-.08.33-.04.45.04.12.09.23.15.32.06.09.1.18.12.25.02.08-.02.16-.13.25.14.24.29.52.46.85.17.33.28.66.32.98.04.32,0,.61-.16.86-.15.25-.46.41-.94.49.02-.15,0-.27-.07-.36-.07-.09-.15-.17-.25-.24s-.21-.14-.32-.2c-.11-.06-.19-.14-.25-.23-.02-.14,0-.24.04-.32.04-.08.08-.17.11-.26-.25-.13-.45-.3-.59-.51-.14-.21-.26-.44-.36-.7-.09-.25-.19-.51-.27-.78-.09-.26-.19-.5-.32-.72-.77.02-1.5.12-2.16.28-.67.16-1.31.35-1.92.56.03.27.03.55-.03.83-.05.28-.15.54-.29.77-.15.23-.34.44-.59.61-.25.17-.55.27-.9.29-.21-.5-.26-1-.17-1.52.1-.52.28-1.03.55-1.54.27-.51.6-1.02.99-1.52s.77-.99,1.14-1.47c.37-.48.69-.95.98-1.39.28-.44.45-.87.52-1.28.32-.28.61-.35.86-.21.25.14.49.36.71.67.22.3.44.63.66.97.22.35.46.58.73.69-.03.15-.04.27,0,.36.03.1.07.18.12.27s.1.16.15.24c.05.08.08.17.1.28ZM88.38,133.41c.22.01.4,0,.56-.06.16-.05.26-.16.32-.34-.07,0-.11,0-.12-.03-.01-.03-.03-.06-.04-.09-.01-.04-.02-.07-.04-.1-.01-.04-.04-.06-.09-.06-.13.08-.22.17-.27.24-.05.08-.16.22-.32.44Z"/>
    <path class="cls-1" d="M103.63,132.12c-.25.49-.56.95-.95,1.37-.39.42-.79.85-1.2,1.28-.41.43-.81.86-1.18,1.3-.37.44-.67.93-.88,1.45.33.29.72.52,1.15.69s.86.33,1.29.48c.43.15.83.32,1.2.5.37.18.67.43.91.74.2-.13.39-.17.56-.15.17.03.38.1.62.21-.04.18-.04.31,0,.38.03.07,0,.17-.07.29-.36.02-.74-.01-1.14-.11-.41-.1-.82-.2-1.24-.29-.42-.09-.83-.16-1.24-.2-.41-.04-.79.02-1.17.17-.16-.1-.3-.15-.43-.15-.13,0-.26,0-.39.02-.13,0-.26,0-.4-.01-.14-.02-.3-.09-.49-.21-.14.03-.25.09-.35.17s-.18.17-.27.26c-.09.09-.18.18-.27.26s-.2.14-.32.17c-.55-.47-.97-1.05-1.27-1.74-.3-.69-.49-1.43-.56-2.21-.07-.78-.05-1.58.08-2.4.12-.82.33-1.58.63-2.3.3-.72.68-1.37,1.16-1.94.47-.57,1-1.01,1.59-1.3.4-.4.85-.64,1.35-.72.5-.07.98-.02,1.46.15.47.18.89.45,1.26.81.37.36.61.79.74,1.27-.08.08-.14.18-.19.32-.05.14.01.22.19.26-.09.22-.17.43-.21.63-.05.2-.03.38.07.54ZM101.05,133.24c.35-.38.56-.74.62-1.1.07-.35.04-.66-.09-.93-.13-.27-.33-.48-.6-.64-.28-.16-.58-.25-.9-.26-.33-.01-.66.06-1,.23-.34.17-.63.45-.86.84.03.29.03.48,0,.58-.03.1-.13.23-.3.39-.02.06-.03.11,0,.14.02.03.05.05.08.07.03.02.06.04.09.06.03.02.04.06.04.11-.15.23-.24.48-.27.74-.03.26-.04.52-.03.8,0,.28.02.57.03.87.01.3,0,.61-.04.93.29-.2.57-.43.83-.68.26-.25.51-.51.75-.78.24-.26.5-.51.76-.75s.56-.44.88-.62ZM101.86,128.61c0,.08.02.12.04.09.02-.02.03-.05.03-.08,0-.03,0-.06-.01-.09-.01-.03-.03,0-.06.08Z"/>
    <path class="cls-1" d="M107.05,141c.08.06.11.14.11.25,0,.11.02.2.08.27.28.02.5.1.64.25.14.15.24.33.3.54-.29.02-.51.12-.66.31-.15.19-.26.44-.33.75-.18,0-.34.01-.46.06-.12.04-.23.1-.32.17-.24-.06-.42-.16-.52-.3-.1-.14-.16-.29-.17-.46-.01-.17,0-.34.04-.53.04-.18.08-.36.12-.54.2-.11.39-.21.59-.31.2-.09.39-.2.57-.33l.02-.15ZM107.54,136.4v-.1s-.06.03-.06.05c0,.03.02.04.06.04.07.13.1.23.1.31s-.02.16-.07.23c-.04.07-.09.14-.14.22-.05.08-.09.17-.12.29-.16.05-.27.05-.34,0-.07-.04-.13-.1-.19-.17-.06-.07-.12-.15-.17-.22-.06-.07-.16-.12-.31-.14.02-.06.05-.12.08-.15.03-.04.04-.1.04-.18.07-.02.09-.04.06-.06-.03-.01-.05,0-.06.06-.14-.08-.2-.25-.17-.49.03-.24.08-.51.15-.8.07-.29.12-.58.14-.86.03-.28-.04-.5-.21-.66.05-.14.1-.31.15-.49.05-.18.04-.35-.03-.51.2-.29.36-.69.47-1.19.11-.5.21-1.03.28-1.59s.16-1.11.24-1.66c.08-.54.22-1.02.4-1.41-.1-.13-.15-.29-.13-.47.01-.18.04-.36.06-.53.03-.17.04-.33.04-.47,0-.14-.06-.25-.19-.31.03-.37.12-.65.28-.83.16-.19.33-.3.53-.34.2-.04.39,0,.57.08.18.09.32.23.43.43s.13.43.08.7c-.05.27-.2.57-.46.89.03.86.01,1.72-.05,2.58-.06.86-.15,1.72-.26,2.58s-.24,1.72-.38,2.57c-.14.86-.27,1.71-.39,2.55-.12.07-.27.08-.43.05Z"/>
  </g>
</svg>