<?xml version="1.0" encoding="utf-8"?>
<!-- Generator: Adobe Illustrator 28.3.0, SVG Export Plug-In . SVG Version: 6.00 Build 0)  -->
<svg version="1.1" id="Capa_1" xmlns="http://www.w3.org/2000/svg" xmlns:xlink="http://www.w3.org/1999/xlink" x="0px" y="0px"
	 viewBox="0 0 512 512" style="enable-background:new 0 0 512 512;" xml:space="preserve">
<style type="text/css">
	.st0{fill:#ed6e1c;}
</style>
<g id="_01_align_center">
	<path class="st0" d="M448,512h-42.7V404.4c0-34.8-28.3-63-63.1-63.1H169.7c-34.8,0-63,28.3-63.1,63.1V512H64V404.4
		c0.1-58.4,47.4-105.7,105.7-105.7h172.5c58.4,0.1,105.7,47.4,105.7,105.7V512z"/>
	<path class="st0" d="M256,256c-70.7,0-128-57.3-128-128S185.3,0,256,0s128,57.3,128,128C383.9,198.7,326.7,255.9,256,256z
		 M256,42.7c-47.1,0-85.3,38.2-85.3,85.3s38.2,85.3,85.3,85.3s85.3-38.2,85.3-85.3S303.1,42.7,256,42.7z"/>
</g>
</svg>
