<?xml version="1.0" encoding="utf-8"?>
<!-- Generator: Adobe Illustrator 28.3.0, SVG Export Plug-In . SVG Version: 6.00 Build 0)  -->
<svg version="1.1" id="Outline" xmlns="http://www.w3.org/2000/svg" xmlns:xlink="http://www.w3.org/1999/xlink" x="0px" y="0px"
	 viewBox="0 0 512 512" style="enable-background:new 0 0 512 512;" xml:space="preserve">
<style type="text/css">
	.st0{fill:#ED6E1C;}
</style>
<path class="st0" d="M256,128c-47.1,0-85.3,38.2-85.3,85.3s38.2,85.3,85.3,85.3s85.3-38.2,85.3-85.3S303.1,128,256,128z M256,256
	c-23.6,0-42.7-19.1-42.7-42.7s19.1-42.7,42.7-42.7s42.7,19.1,42.7,42.7S279.6,256,256,256z"/>
<path class="st0" d="M256,512c-36.5,0.2-70.7-17.3-92-46.9C82.7,352.9,41.5,268.6,41.5,214.5C41.5,96,137.6,0,256,0
	c118.5,0,214.5,96,214.5,214.5c0,54.1-41.2,138.5-122.5,250.6C326.7,494.7,292.5,512.2,256,512z M256,46.5
	c-92.7,0.1-167.9,75.3-168,168c0,42.9,40.4,122.2,113.7,223.3c21.8,30,63.7,36.6,93.7,14.9c5.7-4.1,10.7-9.2,14.9-14.9
	C383.6,336.7,424,257.4,424,214.5C423.9,121.8,348.7,46.6,256,46.5z"/>
</svg>
